# xmcd CD database file
#
# Track frame offsets:
#	150
#	17326
#	33898
#	48088
#	67976
#	92308
#	105721
#	118560
#
# Disc length: 1841 seconds
#
# Revision: 0
# Processed by: cddbd v1.4PL0 Copyright (c) Steve Scherf et al.
# Submitted via: CDex 1.50Beta7
#
DISCID=4e072f08
DTITLE=bernard lubat - l'idiome sandwich
DYEAR=2002
DGENRE=Jazz
TTITLE0=samba mama gasconne
TTITLE1=tu mens dady's
TTITLE2=lubalade (instrumental)
TTITLE3=los gojats e las gojatas
TTITLE4=soso articule
TTITLE5=loulou la gamelle
TTITLE6=chaloupe song (instrumental)
TTITLE7=le gnan gnan
EXTD=YEAR: 2002
EXTT0=
EXTT1=
EXTT2=
EXTT3=
EXTT4=
EXTT5=
EXTT6=
EXTT7=
PLAYORDER=
